General


Format                           : MPEG-4
Format profile                   : Base Media
Codec ID                         : isom
File size                        : 46.1 MiB
Duration                         : 3mn 36s
Overall bit rate                 : 1 785 Kbps
Encoded date                     : UTC 2012-03-06 16:27:02
Tagged date                      : UTC 2012-03-06 16:27:02

Video
ID                               : 1
Format                           : AVC
Format/Info                      : Advanced Video Codec
Format profile                   : High@L3.0
Format settings, CABAC           : Yes
Format settings, ReFrames        : 2 frames
Codec ID                         : avc1
Codec ID/Info                    : Advanced Video Coding
Duration                         : 3mn 36s
Bit rate mode                    : Variable
Bit rate                         : 1 705 Kbps
Maximum bit rate                 : 5 115 Kbps
Width                            : 720 pixels
Height                           : 480 pixels
Display aspect ratio             : 4:3
Original display aspect ratio    : 4:3
Frame rate mode                  : Constant
Frame rate                       : 25.000 fps
Standard                         : NTSC
Color space                      : YUV
Chroma subsampling               : 4:2:0
Bit depth                        : 8 bits
Scan type                        : Progressive
Bits/(Pixel*Frame)               : 0.197
Stream size                      : 44.2 MiB (96%)


Audio
ID                               : 2
Format                           : AAC
Format/Info                      : Advanced Audio Codec
Format profile                   : LC
Codec ID                         : 40
Duration                         : 3mn 36s
Bit rate mode                    : Variable
Bit rate                         : 66.15 Kbps
Maximum bit rate                 : 78.5 Kbps
Channel(s)                       : 2 channels
Channel positions                : Front: L R
Sampling rate                    : 44.1 KHz
Compression mode                 : Lossy
Stream size                      : 1.70 MiB (4%)

